# Blender 3.4.0
# www.blender.org
o Cube.034
v -13.823613 1.492139 -42.771076
v -13.823613 6.257329 -42.713829
v -13.823613 1.434892 -45.792458
v -13.823613 6.257329 -45.792458
v -12.106973 1.434892 -42.713829
v -12.106973 6.257329 -42.713829
v -12.106973 1.434892 -45.792458
v -12.106973 6.257329 -45.792458
v -13.823613 6.004625 -42.713829
v -13.823613 1.492139 -45.540161
v -13.823613 3.118645 -45.530834
v -13.823613 3.185218 -45.597408
v -13.823613 3.121903 -45.551407
v -13.823613 3.131360 -45.569965
v -13.823613 3.146088 -45.584694
v -13.823613 3.164646 -45.594151
v -13.823613 3.185218 -44.655678
v -13.823613 3.118645 -44.722252
v -13.823613 3.164646 -44.658939
v -13.823613 3.146088 -44.668392
v -13.823613 3.131360 -44.683121
v -13.823613 3.121903 -44.701679
v -13.823613 3.904209 -45.597408
v -13.823613 3.970783 -45.530834
v -13.823613 3.924782 -45.594151
v -13.823613 3.943340 -45.584694
v -13.823613 3.958068 -45.569965
v -13.823613 3.967524 -45.551407
v -13.823613 3.970783 -44.722252
v -13.823613 3.904209 -44.655678
v -13.823613 3.967524 -44.701679
v -13.823613 3.958068 -44.683121
v -13.823613 3.943340 -44.668392
v -13.823613 3.924782 -44.658939
v -13.741480 3.970783 -45.530834
v -13.741480 3.904209 -45.597408
v -13.741480 3.967524 -45.551407
v -13.741480 3.958068 -45.569965
v -13.741480 3.943340 -45.584694
v -13.741480 3.924782 -45.594151
v -13.741480 3.118645 -45.530834
v -13.741480 3.164646 -45.594151
v -13.741480 3.146088 -45.584694
v -13.741480 3.131360 -45.569965
v -13.741480 3.121903 -45.551407
v -13.741480 3.118645 -44.722252
v -13.741480 3.185218 -44.655678
v -13.741480 3.121903 -44.701679
v -13.741480 3.131360 -44.683121
v -13.741480 3.146088 -44.668392
v -13.741480 3.164646 -44.658939
v -13.741480 3.904209 -44.655678
v -13.741480 3.970783 -44.722252
v -13.741480 3.924782 -44.658939
v -13.741480 3.943340 -44.668392
v -13.741480 3.958068 -44.683121
v -13.741480 3.967524 -44.701679
v -13.823613 5.917227 -45.597408
v -13.823613 6.004625 -45.510010
v -13.823613 5.944234 -45.593132
v -13.823613 5.968597 -45.580719
v -13.823613 5.987933 -45.561382
v -13.823613 6.000347 -45.537018
v -13.823613 4.136468 -45.510010
v -13.823613 4.223866 -45.597408
v -13.823613 4.140745 -45.537018
v -13.823613 4.153159 -45.561382
v -13.823613 4.172495 -45.580719
v -13.823613 4.196858 -45.593132
v -13.823613 6.004625 -43.492676
v -13.823613 5.917227 -43.405277
v -13.823613 6.000347 -43.465668
v -13.823613 5.987933 -43.441303
v -13.823613 5.968597 -43.421970
v -13.823613 5.944234 -43.409557
v -13.823613 4.223866 -43.405277
v -13.823613 4.136468 -43.492676
v -13.823613 4.196858 -43.409557
v -13.823613 4.172495 -43.421970
v -13.823613 4.153159 -43.441303
v -13.823613 4.140745 -43.465668
v -13.676605 5.917227 -43.405277
v -13.676605 6.004625 -43.492676
v -13.676605 5.944234 -43.409557
v -13.676605 5.968597 -43.421970
v -13.676605 5.987933 -43.441303
v -13.676605 6.000347 -43.465668
v -13.676605 6.004625 -45.510010
v -13.676605 5.917227 -45.597408
v -13.676605 6.000347 -45.537018
v -13.676605 5.987933 -45.561382
v -13.676605 5.968597 -45.580719
v -13.676605 5.944234 -45.593132
v -13.676605 4.136468 -43.492676
v -13.676605 4.223866 -43.405277
v -13.676605 4.140745 -43.465668
v -13.676605 4.153159 -43.441303
v -13.676605 4.172495 -43.421970
v -13.676605 4.196858 -43.409557
v -13.676605 4.223866 -45.597408
v -13.676605 4.136468 -45.510010
v -13.676605 4.196858 -45.593132
v -13.676605 4.172495 -45.580719
v -13.676605 4.153159 -45.561382
v -13.676605 4.140745 -45.537018
v -13.823613 1.434892 -45.597408
v -13.823613 1.434892 -42.713829
v -13.823613 1.987053 -45.597408
v -13.823613 1.987053 -42.713829
v -13.751482 1.492139 -45.540161
v -13.751482 1.492139 -42.771076
v -13.823613 1.745386 -45.540161
v -13.823613 1.929806 -45.355743
v -13.823613 1.802375 -45.531136
v -13.823613 1.853785 -45.504940
v -13.823613 1.894585 -45.464142
v -13.823613 1.920779 -45.412731
v -13.823613 1.929806 -42.955494
v -13.823613 1.745386 -42.771076
v -13.823613 1.920779 -42.898506
v -13.823613 1.894585 -42.847095
v -13.823613 1.853785 -42.806297
v -13.823613 1.802375 -42.780102
v -13.751482 1.929806 -45.355743
v -13.751482 1.745386 -45.540161
v -13.751482 1.920779 -45.412731
v -13.751482 1.894585 -45.464142
v -13.751482 1.853785 -45.504940
v -13.751482 1.802375 -45.531136
v -13.751482 1.745386 -42.771076
v -13.751482 1.929806 -42.955494
v -13.751482 1.802375 -42.780102
v -13.751482 1.853785 -42.806297
v -13.751482 1.894585 -42.847095
v -13.751482 1.920779 -42.898506
vn -0.0000 1.0000 -0.0000
vn 1.0000 -0.0000 -0.0000
vn -0.0000 -0.0000 -1.0000
vn -0.0000 -1.0000 -0.0000
vn -0.0000 -0.0000 1.0000
vn -1.0000 -0.0000 -0.0000
vn -0.0193 0.0044 0.9998
vn -0.0000 0.9877 0.1564
vn -0.0000 0.8910 0.4540
vn -0.0000 0.7071 0.7071
vn -0.0000 0.4540 0.8910
vn -0.0000 -0.9877 0.1564
vn -0.0000 -0.8910 0.4540
vn -0.0000 -0.7071 0.7071
vn -0.0000 -0.4540 0.8910
vn -0.0000 -0.1564 0.9877
vn -0.0000 0.1564 -0.9877
vn -0.0000 0.4540 -0.8910
vn -0.0000 0.7071 -0.7071
vn -0.0000 0.8910 -0.4540
vn -0.0000 0.9877 -0.1564
vn -0.0000 -0.1564 -0.9877
vn -0.0000 -0.4540 -0.8910
vn -0.0000 -0.7071 -0.7071
vn -0.0000 -0.8910 -0.4540
vn -0.0000 -0.9877 -0.1564
vn -0.0000 0.1564 0.9877
vt 0.361929 0.151605
vt 0.361929 0.168992
vt 0.986483 0.153655
vt 0.991202 0.785370
vt 0.617736 0.146019
vt 0.989912 0.535001
vt 0.379317 0.785370
vt 0.747013 0.146074
vt 0.005851 0.785370
vt 0.379316 0.146019
vt 0.747013 0.531623
vt 0.617736 0.652428
vt 0.991202 0.652428
vt 0.617736 0.278962
vt 0.379317 0.652428
vt 0.005851 0.652428
vt 0.379317 0.278962
vt 0.971632 0.785370
vt 0.990832 0.513038
vt 0.147482 0.168992
vt 0.767491 0.150862
vt 0.092138 0.151605
vt 0.768956 0.278879
vt 0.762050 0.286881
vt 0.767011 0.279805
vt 0.765243 0.281131
vt 0.763768 0.282811
vt 0.762682 0.284764
vt 0.838584 0.286274
vt 0.830989 0.278729
vt 0.837647 0.284014
vt 0.836372 0.282291
vt 0.834762 0.280857
vt 0.832906 0.279804
vt 0.762269 0.344214
vt 0.770369 0.350628
vt 0.763264 0.346040
vt 0.764645 0.347681
vt 0.766359 0.349035
vt 0.768309 0.350028
vt 0.832030 0.349260
vt 0.838637 0.341676
vt 0.833891 0.348399
vt 0.835575 0.347140
vt 0.836977 0.345537
vt 0.838015 0.343679
vt 0.771784 0.345587
vt 0.771415 0.345318
vt 0.767583 0.341871
vt 0.767816 0.342416
vt 0.770464 0.345162
vt 0.769520 0.344681
vt 0.768706 0.344015
vt 0.768091 0.343208
vt 0.770843 0.284313
vt 0.767471 0.286843
vt 0.768056 0.285979
vt 0.768835 0.285247
vt 0.769772 0.284671
vt 0.829301 0.283830
vt 0.833148 0.287715
vt 0.830362 0.284273
vt 0.831311 0.284905
vt 0.832109 0.285710
vt 0.832724 0.286658
vt 0.833699 0.340262
vt 0.833378 0.340597
vt 0.829952 0.344499
vt 0.830443 0.344142
vt 0.833221 0.341546
vt 0.832735 0.342484
vt 0.832067 0.343296
vt 0.831263 0.343879
vt 0.761579 0.503259
vt 0.770847 0.512713
vt 0.762644 0.505746
vt 0.764177 0.508039
vt 0.766121 0.510017
vt 0.768386 0.511590
vt 0.772166 0.363002
vt 0.761810 0.371720
vt 0.769558 0.363944
vt 0.767065 0.365336
vt 0.764867 0.367155
vt 0.763092 0.369322
vt 0.926507 0.515150
vt 0.936692 0.504568
vt 0.929209 0.513908
vt 0.931692 0.512133
vt 0.933826 0.509903
vt 0.935512 0.507335
vt 0.936868 0.371097
vt 0.927840 0.360214
vt 0.935992 0.368265
vt 0.934580 0.365645
vt 0.932684 0.363370
vt 0.930397 0.361542
vt 0.361929 0.363767
vt 0.927401 0.501848
vt 0.355161 0.370536
vt 0.923158 0.506492
vt 0.361598 0.365859
vt 0.926987 0.503105
vt 0.360637 0.367746
vt 0.926309 0.504229
vt 0.359140 0.369243
vt 0.925433 0.505200
vt 0.357253 0.370205
vt 0.924372 0.505969
vt 0.198932 0.370536
vt 0.773422 0.503074
vt 0.192163 0.363768
vt 0.771042 0.500776
vt 0.196840 0.370205
vt 0.772345 0.503315
vt 0.194953 0.369243
vt 0.771509 0.503153
vt 0.193456 0.367746
vt 0.770977 0.502635
vt 0.192495 0.365859
vt 0.770807 0.501821
vt 0.355161 0.225859
vt 0.926306 0.369337
vt 0.361929 0.232628
vt 0.927151 0.372566
vt 0.357253 0.226191
vt 0.926998 0.369221
vt 0.359139 0.227152
vt 0.927494 0.369542
vt 0.360637 0.228649
vt 0.927724 0.370250
vt 0.361598 0.230536
vt 0.927625 0.371281
vt 0.192163 0.232628
vt 0.771328 0.374675
vt 0.198932 0.225859
vt 0.773963 0.372754
vt 0.192495 0.230536
vt 0.771143 0.373690
vt 0.193456 0.228649
vt 0.771365 0.372943
vt 0.194953 0.227152
vt 0.771950 0.372502
vt 0.196840 0.226191
vt 0.772838 0.372424
vt 0.394422 0.785370
vt 0.762869 0.146173
vt 0.617736 0.785370
vt 0.991077 0.149187
vt 0.762970 0.190409
vt 0.660498 0.785370
vt 0.990447 0.192859
vt 0.147482 0.174578
vt 0.092138 0.146019
vt 0.361929 0.146019
vt 0.361929 0.174578
vt 0.767442 0.171069
vt 0.111750 0.151605
vt 0.781985 0.185936
vt 0.134092 0.151605
vt 0.768160 0.175657
vt 0.116218 0.151605
vt 0.770238 0.179788
vt 0.120687 0.151605
vt 0.773461 0.183058
vt 0.125155 0.151605
vt 0.777504 0.185173
vt 0.129623 0.151605
vt 0.971443 0.188106
vt 0.319975 0.151605
vt 0.986214 0.173681
vt 0.342317 0.151605
vt 0.975950 0.187440
vt 0.324443 0.151605
vt 0.980036 0.185415
vt 0.328912 0.151605
vt 0.983304 0.182227
vt 0.333380 0.151605
vt 0.985433 0.178184
vt 0.337849 0.151605
vt 0.161764 0.208473
vt 0.134092 0.146019
vt 0.147482 0.194191
vt 0.111750 0.146019
vt 0.157350 0.207774
vt 0.129623 0.146019
vt 0.153369 0.205745
vt 0.125155 0.146019
vt 0.150209 0.202585
vt 0.120687 0.146019
vt 0.148181 0.198604
vt 0.116218 0.146019
vt 0.361929 0.194191
vt 0.342317 0.146019
vt 0.347647 0.208473
vt 0.319975 0.146019
vt 0.361230 0.198604
vt 0.337849 0.146019
vt 0.359202 0.202585
vt 0.333380 0.146019
vt 0.356042 0.205745
vt 0.328912 0.146019
vt 0.352061 0.207774
vt 0.324443 0.146019
s 0
f 64/80/1 77/93/1 94/123/1 101/137/1
f 6/14/2 5/12/2 7/15/2 8/17/2
f 3/7/3 4/9/3 8/16/3 7/15/3
f 29/41/4 24/36/4 35/48/4 53/69/4
f 5/12/5 6/13/5 2/4/5 9/18/5 109/151/5 107/148/5
f 7/15/4 5/12/4 107/148/4 106/146/4 3/7/4
f 58/74/5 65/81/5 100/135/5 89/113/5
f 71/87/3 95/125/3 76/92/3
f 88/110/6 90/114/6 91/116/6 92/118/6 93/120/6 89/112/6 100/134/6 102/138/6 103/140/6 104/142/6 105/144/6 101/136/6 94/122/6 96/126/6 97/128/6 98/130/6 99/132/6 95/124/6 82/98/6 84/102/6 85/104/6 86/106/6 87/108/6 83/100/6
f 17/29/3 30/42/3 52/67/3 47/61/3
f 4/10/1 2/5/1 6/14/1 8/17/1
f 16/28/7 42/56/7 36/50/7 23/35/7 12/24/7
f 46/60/6 48/62/6 49/63/6 50/64/6 51/65/6 47/61/6 52/66/6 54/70/6 55/71/6 56/72/6 57/73/6 53/68/6 35/47/6 37/51/6 38/52/6 39/53/6 40/54/6 36/49/6 42/56/6 43/57/6 44/58/6 45/59/6 41/55/6
f 11/23/1 18/30/1 46/60/1 41/55/1
f 11/23/8 41/55/8 45/59/8 13/25/8
f 13/25/9 45/59/9 44/58/9 14/26/9
f 14/26/10 44/58/10 43/57/10 15/27/10
f 15/27/11 43/57/11 42/56/11 16/28/11
f 35/48/12 24/36/12 28/40/12 37/51/12
f 37/51/13 28/40/13 27/39/13 38/52/13
f 38/52/14 27/39/14 26/38/14 39/53/14
f 39/53/15 26/38/15 25/37/15 40/54/15
f 40/54/16 25/37/16 23/35/16 36/50/16
f 17/29/17 47/61/17 51/65/17 19/31/17
f 19/31/18 51/65/18 50/64/18 20/32/18
f 20/32/19 50/64/19 49/63/19 21/33/19
f 21/33/20 49/63/20 48/62/20 22/34/20
f 22/34/21 48/62/21 46/60/21 18/30/21
f 52/67/22 30/42/22 34/46/22 54/70/22
f 54/70/23 34/46/23 33/45/23 55/71/23
f 55/71/24 33/45/24 32/44/24 56/72/24
f 56/72/25 32/44/25 31/43/25 57/73/25
f 57/73/26 31/43/26 29/41/26 53/69/26
f 111/156/6 130/193/6 132/197/6 133/199/6 134/201/6 135/203/6 131/195/6 124/181/6 126/185/6 127/187/6 128/189/6 129/191/6 125/183/6 110/153/6
f 70/86/6 9/19/6 2/6/6 4/11/6 3/8/6 106/147/6 108/150/6 12/24/6 23/35/6 25/37/6 26/38/6 27/39/6 28/40/6 24/36/6 29/41/6 31/43/6 32/44/6 33/45/6 34/46/6 30/42/6 77/93/6 64/80/6 66/82/6 67/83/6 68/84/6 69/85/6 65/81/6 58/74/6 60/76/6 61/77/6 62/78/6 63/79/6 59/75/6
f 64/80/8 101/137/8 105/145/8 66/82/8
f 66/82/9 105/145/9 104/143/9 67/83/9
f 67/83/10 104/143/10 103/141/10 68/84/10
f 68/84/11 103/141/11 102/139/11 69/85/11
f 69/85/27 102/139/27 100/135/27 65/81/27
f 88/111/12 59/75/12 63/79/12 90/115/12
f 90/115/13 63/79/13 62/78/13 91/117/13
f 91/117/14 62/78/14 61/77/14 92/119/14
f 92/119/15 61/77/15 60/76/15 93/121/15
f 93/121/16 60/76/16 58/74/16 89/113/16
f 95/125/17 78/94/17 76/92/17
f 99/133/18 79/95/18 78/94/18
f 98/131/19 80/96/19 79/95/19
f 97/129/20 81/97/20 80/96/20
f 96/127/21 77/93/21 81/97/21
f 71/87/22 84/103/22 82/99/22
f 75/91/23 85/105/23 84/103/23
f 74/90/24 86/107/24 85/105/24
f 73/89/25 87/109/25 86/107/25
f 72/88/26 83/101/26 87/109/26
f 70/86/4 59/75/4 88/111/4 83/101/4
f 71/87/3 82/99/3 95/125/3
f 95/125/17 99/133/17 78/94/17
f 99/133/18 98/131/18 79/95/18
f 98/131/19 97/129/19 80/96/19
f 97/129/20 96/127/20 81/97/20
f 96/127/21 94/123/21 77/93/21
f 71/87/22 75/91/22 84/103/22
f 75/91/23 74/90/23 85/105/23
f 74/90/24 73/89/24 86/107/24
f 73/89/25 72/88/25 87/109/25
f 72/88/26 70/86/26 83/101/26
f 108/150/6 109/152/6 9/19/6 70/86/6 72/88/6 73/89/6 74/90/6 75/91/6 71/87/6 76/92/6 78/94/6 79/95/6 80/96/6 81/97/6 77/93/6 30/42/6 17/29/6 19/31/6 20/32/6 21/33/6 22/34/6 18/30/6 11/23/6 13/25/6 14/26/6 15/27/6 16/28/6 12/24/6
f 1/3/6 10/21/6 106/147/6 107/149/6
f 118/170/4 113/160/4 124/182/4 131/196/4
f 1/1/3 119/172/3 130/194/3 111/155/3
f 10/20/1 1/2/1 111/156/1 110/153/1
f 112/157/6 114/161/6 115/163/6 116/165/6 117/167/6 113/159/6 118/169/6 120/173/6 121/175/6 122/177/6 123/179/6 119/171/6 1/3/6 107/149/6 109/152/6 108/150/6 106/147/6 10/21/6
f 118/170/26 131/196/26 135/204/26 120/174/26
f 120/174/25 135/204/25 134/202/25 121/176/25
f 121/176/24 134/202/24 133/200/24 122/178/24
f 122/178/23 133/200/23 132/198/23 123/180/23
f 123/180/22 132/198/22 130/194/22 119/172/22
f 112/158/16 125/184/16 129/192/16 114/162/16
f 114/162/15 129/192/15 128/190/15 115/164/15
f 115/164/14 128/190/14 127/188/14 116/166/14
f 116/166/13 127/188/13 126/186/13 117/168/13
f 117/168/12 126/186/12 124/182/12 113/160/12
f 112/158/5 10/22/5 110/154/5 125/184/5
